# AST/ASF file generated using VICON BodyLanguage
# -----------------------------------------------
:version 1.10
:name VICON
:units
  mass 1.0
  length 0.45
  angle deg
:documentation
   .ast/.asf automatically generated from VICON data using
   VICON BodyBuilder and BodyLanguage model FoxedUp or BRILLIANT.MOD
:root
   order TX TY TZ RX RY RZ
   axis XYZ
   position 0 0 0  
   orientation 0 0 0 
:bonedata
  begin
     id 1 
     name lhipjoint
     direction 0.606768 -0.715223 0.346827 
     length 2.41543 
     axis 0 0 0  XYZ
  end
  begin
     id 2 
     name lfemur
     direction 0.34202 -0.939693 0  
     length 7.2778  
     axis 0 0 20  XYZ
    dof rx ry rz
    limits (-160.0 20.0)
           (-70.0 70.0)
           (-60.0 70.0)
  end
  begin
     id 3 
     name ltibia
     direction 0.34202 -0.939693 0   
     length 7.61811   
     axis 0 0 20   XYZ
    dof rx
    limits (-10.0 170.0)
  end
  begin
     id 4 
     name lfoot
     direction 0.0823924 -0.226371 0.97055   
     length 2.33618   
     axis -90 7.62852e-016 20   XYZ
    dof rx rz
    limits (-45.0 90.0)
           (-70.0 20.0)
  end
  begin
     id 5 
     name ltoes
     direction 1.53554e-011 -4.21934e-011 1   
     length 1.17015   
     axis -90 7.62852e-016 20   XYZ
    dof rx
    limits (-90.0 20.0)
  end
  begin
     id 6 
     name rhipjoint
     direction -0.6077 -0.714582 0.346516   
     length 2.4176  
     axis 0 0 0  XYZ 
  end
  begin
     id 7 
     name rfemur
     direction -0.34202 -0.939693 0   
     length 7.28127   
     axis 0 0 -20   XYZ
    dof rx ry rz
    limits (-160.0 20.0)
           (-70.0 70.0)
           (-70.0 60.0)
  end
  begin
     id 8 
     name rtibia
     direction -0.34202 -0.939693 0   
     length 7.77648   
     axis 0 0 -20   XYZ
    dof rx
    limits (-10.0 170.0)
 end
 begin
     id 9 
     name rfoot
     direction -0.0809463 -0.222398 0.97159   
     length 2.37533  
     axis -90 -7.62852e-016 -20   XYZ
    dof rx rz
    limits (-45.0 90.0)
           (-20.0 70.0)
  end
  begin
     id 10 
     name rtoes
     direction -1.53568e-011 -4.21714e-011 1   
     length 1.18972   
     axis -90 -7.62852e-016 -20   XYZ
    dof rx
    limits (-90.0 20.0)
  end
  begin
     id 11 
     name lowerback
     direction 0.010968 0.991932 -0.126297   
     length 2.21698   
     axis 0 0 0   XYZ
    dof rx ry rz
    limits (-20.0 45.0)
           (-30.0 30.0)
           (-30.0 30.0)
  end
  begin
     id 12 
     name upperback
     direction 0.0167007 0.997503 -0.0686276   
     length 2.22371   
     axis 0 0 0   XYZ
    dof rx ry rz
    limits (-20.0 45.0)
           (-30.0 30.0)
           (-30.0 30.0)
  end
  begin
     id 13 
     name thorax
     direction 0.0111721 0.999885 -0.0102878   
     length 2.25242   
     axis 0 0 0   XYZ
    dof rx ry rz
    limits (-20.0 45.0)
           (-30.0 30.0)
           (-30.0 30.0)
  end
  begin
     id 14 
     name lowerneck
     direction -0.0120265 0.990428 0.137508   
     length 1.57674   
     axis 0 0 0   XYZ
    dof rx ry rz
    limits (-20.0 45.0)
           (-30.0 30.0)
           (-30.0 30.0)
  end
  begin
     id 15 
     name upperneck
     direction 0.0175669 0.998907 0.0433089   
     length 1.5618   
     axis 0 0 0   XYZ
    dof rx ry rz
    limits (-20.0 45.0)
           (-30.0 30.0)
           (-30.0 30.0)
  end
  begin
     id 16
     name head
     direction 0.00754609 0.99997 0.00185367  
     length 1.60579  
     axis 0 0 0   XYZ
    dof rx ry rz
    limits (-20.0 45.0)
           (-30.0 30.0)
           (-30.0 30.0)
  end
  begin
     id 17 
     name lclavicle
     direction 0.885866 0.429166 -0.176231  
     length 3.44967  
     axis 0 0 0   XYZ
    dof ry rz
    limits (-20.0 10.0)
           (0.0 20.0)
  end
  begin
     id 18 
     name lhumerus
     direction 1 -4.48973e-011 -1.90255e-027   
     length 5.20607   
     axis 180 -30 -90   XYZ
    dof rx ry rz
    limits (-60.0 90.0)
           (-90.0 90.0)
           (-90.0 90.0)
  end
  begin
     id 19
     name lradius
     direction 1 -4.48956e-011 9.87925e-027   
     length 3.39961   
     axis 180 -30 -90   XYZ
    dof rx
    limits (-10.0 170.0)
  end
  begin
     id 20
     name lwrist
     direction 1 -4.48985e-011 1.73247e-026   
     length 1.6998   
     axis -9.60847e-015 90 90   XYZ
    dof ry
    limits (-180.0 0.0)
 end
  begin
     id 21 
     name lhand
     direction 1 -4.48798e-011 3.46119e-026   
     length 0.519693   
     axis -2.21073e-014 90 90   XYZ
    dof rx rz
    limits (-90.0 90.0)
           (-45.0 45.0)
  end
  begin
     id 22 
     name lfingers
     direction 1 -4.48938e-011 6.92797e-026   
     length 0.41899   
     axis -4.42155e-014 90 90   XYZ
    dof rx
    limits (0.0 90.0)
  end
  begin
     id 23
     name lthumb
     direction 0.707107 -6.34952e-011 0.707107   
     length 0.601588   
     axis -90 45 6.0103e-014   XYZ
    dof rx rz
    limits (-45.0 45.0)
           (-45.0 45.0)
  end
  begin
     id 24 
     name rclavicle
     direction -0.866736 0.456792 -0.200276   
     length 3.45032  
     axis 0 0 0   XYZ 
    dof ry rz
    limits (-10.0 20.0)
           (-20.0 0.0)
  end
  begin
     id 25 
     name rhumerus
     direction -1 -4.4897e-011 8.65094e-028  
     length 5.32214   
     axis 180 30 90   XYZ
    dof rx ry rz
    limits (-90.0 60.0)
           (-90.0 90.0)
           (-90.0 90.0)
  end
  begin
     id 26 
     name rradius
     direction -1 -4.48987e-011 1.08427e-026   
     length 3.51208   
     axis 180 30 90   XYZ
    dof rx
    limits (-10.0 170.0)
  end
  begin
     id 27 
     name rwrist
     direction -1 -4.48961e-011 1.73222e-026   
     length 1.75604   
     axis -9.60847e-015 -90 -90   XYZ
    dof ry
    limits (-180.0 0.0)
  end
  begin
     id 28
     name rhand
     direction -1 -4.48895e-011 3.46314e-026   
     length 0.586681   
     axis -2.21073e-014 -90 -90   XYZ
    dof rx rz
    limits (-90.0 90.0)
           (-45.0 45.0)
  end
  begin
     id 29
     name rfingers
     direction -1 -4.48968e-011 6.92916e-026   
     length 0.472997   
     axis -4.42155e-014 -90 -90   XYZ
    dof rx
    limits (0.0 90.0)
  end
  begin
     id 30
     name rthumb
     direction -0.707107 -6.34848e-011 0.707107   
     length 0.679133   
     axis -90 -45 -6.0103e-014   XYZ
    dof rx rz
    limits (-45.0 45.0)
           (-45.0 45.0)
  end
:hierarchy
  begin
    root lhipjoint rhipjoint lowerback
    lhipjoint lfemur
    lfemur ltibia
    ltibia lfoot
    lfoot ltoes
    rhipjoint rfemur
    rfemur rtibia
    rtibia rfoot
    rfoot rtoes
    lowerback upperback
    upperback thorax
    thorax lowerneck lclavicle rclavicle
    lowerneck upperneck
    upperneck head
    lclavicle lhumerus
    lhumerus lradius
    lradius lwrist
    lwrist lhand lthumb
    lhand lfingers
    rclavicle rhumerus
    rhumerus rradius
    rradius rwrist
    rwrist rhand rthumb
    rhand rfingers
  end

#!OML:ASF H:\Dans Jumps\Project 1\Capture day 1\Session 1\subject.ASF
:FULLY-SPECIFIED
:DEGREES
44
root 0.482499 17.5586 -13.7737 5.83421 -0.979627 -1.62901
lowerback -1.31641 -0.319379 0.5192
upperback 4.16172 -0.517394 1.57461
thorax 5.0454 -0.271938 1.30833
lowerneck -16.1608 0.726272 -2.2099
upperneck 26.5199 1.68865 -0.0676954
head 11.2647 0.529345 0.592505
rclavicle 3.62782e-015 -2.38542e-015
rhumerus -18.6613 -10.7531 -84.8291
rradius 24.299
rwrist 32.2333
rhand -19.435 -26.2218
rfingers 7.12502
rthumb 6.88529 -56.0899
lclavicle 3.62782e-015 -2.38542e-015
lhumerus -17.906 -8.39103 92.172
lradius 20.1707
lwrist 4.85166
lhand -25.0091 -4.79783
lfingers 7.12502
lthumb 1.50281 25.1766
rfemur -10.7565 -3.76915 20.1386
rtibia 19.6265
rfoot -14.0046 -1.59638
rtoes 7.76765
lfemur -9.72468 8.50334 -18.3531
ltibia 16.8001
lfoot -11.7413 1.59007
ltoes -8.25415
45
root 0.483677 17.5584 -13.7735 5.83318 -0.979947 -1.62479
lowerback -1.32735 -0.320858 0.523808
upperback 4.14488 -0.519441 1.57495
thorax 5.034 -0.272726 1.30591
lowerneck -16.1551 0.737454 -2.19292
upperneck 26.5388 1.70576 -0.0883149
head 11.2709 0.535961 0.584606
rclavicle -8.05078e-015 -3.37934e-015
rhumerus -18.685 -10.7293 -84.8237
rradius 24.3073
rwrist 32.2177
rhand -19.4195 -26.2345
rfingers 7.12502
rthumb 6.9002 -56.1021
lclavicle -8.05078e-015 -3.37934e-015
lhumerus -17.8861 -8.33023 92.1246
lradius 20.1261
lwrist 4.77786
lhand -24.9881 -4.72569
lfingers 7.12502
lthumb 1.52302 25.2486
rfemur -10.7584 -3.77002 20.1295
rtibia 19.6332
rfoot -14.006 -1.59777
rtoes 7.76307
lfemur -9.72493 8.51764 -18.3615
ltibia 16.8036
lfoot -11.7491 1.57204
ltoes -8.23116
46
root 0.484875 17.5583 -13.7735 5.83417 -0.977395 -1.6218
lowerback -1.34224 -0.321966 0.52918
upperback 4.12933 -0.52112 1.57567
thorax 5.0262 -0.273315 1.30345
lowerneck -16.1494 0.748421 -2.17049
upperneck 26.5544 1.72177 -0.111782
head 11.276 0.542322 0.574561
rclavicle -5.81445e-015 9.14409e-015
rhumerus -18.7033 -10.7149 -84.8154
rradius 24.3112
rwrist 32.2061
rhand -19.3981 -26.2494
rfingers 7.12502
rthumb 6.92083 -56.1163
lclavicle -5.81445e-015 9.14409e-015
lhumerus -17.8667 -8.28484 92.0786
lradius 20.0916
lwrist 4.70991
lhand -24.9614 -4.58014
lfingers 7.12502
lthumb 1.54881 25.394
rfemur -10.762 -3.77475 20.1222
rtibia 19.6379
rfoot -14.0065 -1.59809
rtoes 7.75984
lfemur -9.72994 8.52722 -18.3692
ltibia 16.8094
lfoot -11.7561 1.55742
ltoes -8.21277
47
root 0.486016 17.5581 -13.7735 5.83506 -0.974672 -1.6181
lowerback -1.35776 -0.323516 0.532444
upperback 4.11546 -0.523351 1.57648
thorax 5.02055 -0.274272 1.30225
lowerneck -16.1488 0.758814 -2.14893
upperneck 26.5703 1.73695 -0.133733
head 11.2822 0.548381 0.565137
rclavicle 3.926e-015 4.17448e-015
rhumerus -18.7161 -10.7109 -84.8059
rradius 24.3093
rwrist 32.2063
rhand -19.3752 -26.2665
rfingers 7.12502
rthumb 6.94299 -56.1326
lclavicle 3.926e-015 4.17448e-015
lhumerus -17.8435 -8.24797 92.0324
lradius 20.0556
lwrist 4.64475
lhand -24.9431 -4.43733
lfingers 7.12502
lthumb 1.56657 25.5367
rfemur -10.7654 -3.7792 20.1142
rtibia 19.6422
rfoot -14.0078 -1.59843
rtoes 7.76083
lfemur -9.73481 8.53323 -18.3777
ltibia 16.8152
lfoot -11.7621 1.54747
ltoes -8.20466
48
root 0.487117 17.558 -13.7736 5.83757 -0.971701 -1.61478
lowerback -1.37534 -0.324849 0.534668
upperback 4.10196 -0.525304 1.57762
thorax 5.01648 -0.275142 1.30197
lowerneck -16.1465 0.767642 -2.12918
upperneck 26.5836 1.74968 -0.153489
head 11.2871 0.553477 0.556443
rclavicle -2.48481e-016 -1.23246e-014
rhumerus -18.7249 -10.7186 -84.7941
rradius 24.3024
rwrist 32.2158
rhand -19.3456 -26.2885
rfingers 7.12502
rthumb 6.97154 -56.1537
lclavicle -2.48481e-016 -1.23246e-014
lhumerus -17.8205 -8.21959 91.9868
lradius 20.0243
lwrist 4.58792
lhand -24.9251 -4.27325
lfingers 7.12502
lthumb 1.58388 25.7006
rfemur -10.7712 -3.78351 20.1069
rtibia 19.6465
rfoot -14.0096 -1.59956
rtoes 7.76255
lfemur -9.74171 8.53673 -18.3863
ltibia 16.8206
lfoot -11.7668 1.54196
ltoes -8.20683
49
root 0.488078 17.5579 -13.7734 5.83494 -0.970263 -1.61148
lowerback -1.38388 -0.32894 0.535774
upperback 4.08857 -0.530776 1.57903
thorax 5.00744 -0.277809 1.30243
lowerneck -16.1491 0.775703 -2.12292
upperneck 26.5994 1.76223 -0.1623
head 11.2937 0.558434 0.554062
rclavicle -5.46658e-016 2.127e-014
rhumerus -18.7341 -10.7292 -84.784
rradius 24.2883
rwrist 32.2404
rhand -19.3489 -26.2835
rfingers 7.12502
rthumb 6.9684 -56.1488
lclavicle -5.46658e-016 2.127e-014
lhumerus -17.7942 -8.16963 91.9346
lradius 19.9755
lwrist 4.52
lhand -24.9267 -4.28216
lfingers 7.12502
lthumb 1.58238 25.6917
rfemur -10.7696 -3.78505 20.0998
rtibia 19.6511
rfoot -14.015 -1.6023
rtoes 7.76224
lfemur -9.74064 8.5419 -18.393
ltibia 16.8251
lfoot -11.7735 1.53617
ltoes -8.20282
